<svg width="21" height="21" viewBox="0 0 21 21" xmlns="http://www.w3.org/2000/svg"><title>behance</title><g fill="none" fill-rule="evenodd"><path d="M19.944 8.047a10.114 10.114 0 0 1 0 4.056c-.133.649-.33 1.285-.587 1.894a10.137 10.137 0 0 1-3.649 4.432c-.539.363-1.115.674-1.712.928a10.094 10.094 0 0 1-3.922.793 10.145 10.145 0 0 1-3.922-.793 10.294 10.294 0 0 1-1.712-.928 10.143 10.143 0 0 1-3.648-4.432 10.09 10.09 0 0 1-.589-1.894 10.272 10.272 0 0 1 .001-4.057A10.04 10.04 0 0 1 2.951 2.95 10.133 10.133 0 0 1 6.152.791 9.93 9.93 0 0 1 8.045.204a10.137 10.137 0 0 1 5.952.588c.597.253 1.173.566 1.712.931.533.361 1.035.774 1.491 1.228a10.137 10.137 0 0 1 2.158 3.203c.257.607.454 1.244.586 1.893z" fill="#191919"/><path d="M7.362 5c.439 0 .837.037 1.2.12.358.077.666.208.927.39.257.179.457.42.598.719.141.297.21.67.21 1.11 0 .476-.105.87-.315 1.19-.21.317-.522.578-.939.779.566.167.986.461 1.261.878.28.421.417.924.417 1.516 0 .48-.09.89-.268 1.236-.181.35-.424.636-.728.856-.305.22-.653.383-1.044.491-.388.105-.79.16-1.2.16H3.034V5h4.33zm-.26 3.812c.358 0 .655-.085.89-.264.233-.175.345-.462.345-.86 0-.22-.036-.402-.112-.543a.863.863 0 0 0-.312-.328 1.283 1.283 0 0 0-.446-.168 2.643 2.643 0 0 0-.521-.048H5.054v2.208h2.047v.003zm.112 4.021c.199 0 .387-.018.569-.06.18-.04.34-.103.478-.2.134-.093.246-.216.33-.376.083-.16.12-.365.12-.61 0-.489-.135-.831-.4-1.043-.264-.209-.619-.31-1.054-.31H5.058v2.6h2.156zM13.609 12.8c.275.275.67.413 1.18.413.37 0 .69-.097.954-.286.264-.19.427-.395.489-.607h1.609c-.258.822-.653 1.41-1.185 1.764-.53.354-1.174.533-1.928.533-.525 0-.996-.086-1.42-.26a3.022 3.022 0 0 1-1.072-.734 3.372 3.372 0 0 1-.674-1.14 4.25 4.25 0 0 1-.24-1.455c0-.51.084-.99.247-1.43.167-.443.395-.826.695-1.147.301-.324.66-.577 1.08-.763.417-.186.877-.28 1.388-.28.561 0 1.054.113 1.478.34.42.223.765.525 1.036.904.272.38.464.812.584 1.296.12.484.163.99.127 1.523h-4.801c0 .543.177 1.057.453 1.329zm2.098-3.59c-.218-.245-.584-.379-1.033-.379-.294 0-.533.052-.728.153a1.375 1.375 0 0 0-.71.856 2.111 2.111 0 0 0-.084.45h2.975c-.04-.476-.2-.83-.42-1.08zM12.783 5.633h3.725v.931h-3.725z" fill="#FFF"/></g></svg>