<svg width="21" height="21" viewBox="0 0 21 21" xmlns="http://www.w3.org/2000/svg"><title>dribbble</title><path d="M16.72 4.61c-.017.022-1.397 2.016-4.794 3.403a27.017 27.017 0 0 1 .758 1.694c2.956-.372 5.868.253 5.992.28a8.566 8.566 0 0 0-1.957-5.378zm-3.512 6.455c1.128 3.1 1.587 5.627 1.675 6.146a8.607 8.607 0 0 0 3.687-5.77c-.178-.058-2.585-.82-5.362-.375zm.226 6.932c-.127-.752-.627-3.387-1.837-6.533-.02.007-.038.012-.058.02-5.077 1.768-6.735 5.334-6.753 5.374a8.587 8.587 0 0 0 8.647 1.14zM11.264 6.73c3.246-1.216 4.472-3.08 4.493-3.113a8.566 8.566 0 0 0-5.682-2.145c-.7 0-1.378.085-2.027.24.128.174 1.744 2.318 3.216 5.02zm-.255 3.308c-.217-.49-.453-.98-.7-1.462C5.88 9.902 1.63 9.806 1.48 9.8c-.002.093-.007.182-.007.275 0 2.21.835 4.226 2.205 5.748-.003-.004 2.352-4.18 6.995-5.683.112-.036.226-.07.34-.102zm8.934-1.99a10.114 10.114 0 0 1 0 4.055c-.133.65-.33 1.285-.587 1.894a10.137 10.137 0 0 1-3.65 4.432 10.26 10.26 0 0 1-1.71.928 10.094 10.094 0 0 1-3.923.793 10.145 10.145 0 0 1-3.922-.793 10.294 10.294 0 0 1-1.712-.928 10.143 10.143 0 0 1-3.648-4.432 10.09 10.09 0 0 1-.59-1.895 10.272 10.272 0 0 1 .002-4.057A10.04 10.04 0 0 1 2.95 2.95 10.133 10.133 0 0 1 6.15.79 9.93 9.93 0 0 1 8.047.205a10.137 10.137 0 0 1 5.952.588c.597.253 1.173.566 1.712.93a10.137 10.137 0 0 1 3.65 4.43c.255.61.452 1.246.584 1.895zM9.6 7.25a51.643 51.643 0 0 0-3.196-4.957 8.615 8.615 0 0 0-4.75 6.01c.228 0 3.814.045 7.945-1.052z" fill="#191919" fill-rule="evenodd"/></svg>