<svg width="50" height="80" viewBox="0 0 50 80" xmlns="http://www.w3.org/2000/svg" xmlns:xlink="http://www.w3.org/1999/xlink"><title>Group 3</title><defs><path d="M31.073 80.076c11.762 0 23.162-11.654 28.474-16.76 5.573-5.358 15.19-8.033 15.19-20.99 0-16.268-11.255-41.045-23.983-35.295-8.713 3.937-12.646 6.855-17.454 18.885-3.718 9.305-14.46 13.24-14.46 28.8 0 16.267-4.08 25.36 12.233 25.36z" id="a"/><mask id="c" x="0" y="0" width="56.349" height="73.894" fill="#fff"><use xlink:href="#a"/></mask><path d="M30.984 76.135c10.172 0 20.03-10.1 24.624-14.526 4.82-4.644 13.135-6.963 13.135-18.192 0-14.1-9.733-35.573-20.74-30.59-7.534 3.412-10.935 5.94-15.093 16.366-3.215 8.065-12.504 11.476-12.504 24.96 0 14.1-3.53 21.98 10.578 21.98z" id="b"/><mask id="d" x="0" y="0" width="48.729" height="64.042" fill="#fff"><use xlink:href="#b"/></mask></defs><g transform="rotate(19 35.022 -18.664)" fill="none" fill-rule="evenodd"><use stroke="#222" mask="url(#c)" stroke-width="2" transform="rotate(120 46.562 43.13)" xlink:href="#a"/><use stroke="#222" mask="url(#d)" stroke-width="2" transform="rotate(120 44.378 44.114)" xlink:href="#b"/><path d="M24.488 22.26c-4.25 7.36-1.06 18.71.224 23.883 1.346 5.426-.45 12.41 7.674 17.1 10.2 5.89 29.8 7.82 30.793-2.226.678-6.876.27-10.393-5.537-17.755-4.49-5.696-3.08-13.84-12.835-19.473-10.2-5.89-14.428-11.735-20.32-1.53zm16.43 32.098c-.013.024-.045.044-.1.06-.105.036-.013-.013-.166-.003-.077.006-.125-.037-.2-.053a.447.447 0 0 1-.188-.085 6.142 6.142 0 0 1-.392-.166 1.2 1.2 0 0 1-.268-.147 2.516 2.516 0 0 1-.552-.613 3.812 3.812 0 0 1-.41-.895 9.156 9.156 0 0 1-.255-1.062c-.085-.442-.16-1.514-.234-1.744-.03-.09-.08-.122-.15-.1a.62.62 0 0 0-.262.19c-.085.095-.32.49-.403.595-.1.11-.196.24-.285.386a1.3 1.3 0 0 0-.18.265c-.053.076-.115.17-.187.28l-.224.353a.795.795 0 0 0-.115.184 18.743 18.743 0 0 0-.774 1.19c-.246.414-.69 1.086-1.027 1.43a.247.247 0 0 1-.085.102.247.247 0 0 0-.085.1.914.914 0 0 0-.076.085.914.914 0 0 1-.075.082c-.084.105-.404.395-.604.323-.13-.036-.398-.272-.462-.35l-.358-.558a2.802 2.802 0 0 0-.226-.513l-.243-.567a3.546 3.546 0 0 0-.114-.3 3.24 3.24 0 0 1-.103-.276 1.81 1.81 0 0 1-.118-.27l-.082-.25-.12-.373a13.843 13.843 0 0 1-.577-2.587 79.075 79.075 0 0 1-.283-2.683l-.007-.29a87.99 87.99 0 0 1-.134-1.543 57.06 57.06 0 0 1-.098-1.524c.006-.1.003-.202-.01-.305a17.028 17.028 0 0 1-.038-.296 6.39 6.39 0 0 0-.084-.62 13.6 13.6 0 0 0-.176-1.264c-.08-.424-.15-.822-.21-1.193l-.103-.584c-.028-.148-.06-.304-.093-.47a3.59 3.59 0 0 1-.067-.477c.006-.1 0-.196-.02-.287a.716.716 0 0 1-.01-.26c.005-.1.008-.185.005-.252a.347.347 0 0 1 .032-.172c.025-.106.02-.11.07-.154.047-.046.092-.04.13-.043a.247.247 0 0 1 .13.03l.307.136c.117.06.2.132.246.215.046.083.104.17.174.266a.74.74 0 0 1 .236.365c.017.053.03.108.038.163.01.056.026.12.05.19.045.083.08.165.107.244l.09.28c.047.14.096.277.148.406.052.13.1.266.147.408l.07.212c.022.07.036.145.04.22 0 .06.018.143.052.25a61.95 61.95 0 0 1 .51 3.738c.023.07.034.165.033.283l.55 5.878c.038.36.085.657.142.893.056.237.25.86.29.983.028.09.08.185.152.29.072.102.144.142.215.12.053-.018.13-.057.226-.118.098-.06.21-.2.335-.417l.206-.36c.322-.458.595-.913.82-1.368.224-.454.428-.82.613-1.095a5 5 0 0 1 .318-.558 2.42 2.42 0 0 0 .157-.242 2.39 2.39 0 0 1 .535-.658c.208-.175.39-.29.55-.34a.984.984 0 0 1 .478-.024c.176.03.356.085.538.163.276.126.498.357.666.694.074.23.132.456.175.677.042.22-.014.092.118.5.01.035.036.125.073.27.037.144.086.31.146.495l.186.57.164.506c.11.336.223.67.34 1.004.12.334.264.766.437 1.297l.03.097c.064.194.095.35.094.468a.428.428 0 0 1 0 .177.646.646 0 0 1-.038.16c-.012.022-.015.043-.01.06l-.09.176zm2.69-1.47c-.195.063.027-.01-.22.07a.647.647 0 0 1-.514-.038c-.07-.036-.156-.12-.258-.253a4.926 4.926 0 0 1-.315-.47 6.8 6.8 0 0 1-.3-.564 4.316 4.316 0 0 1-.207-.505c-.098-.3-.185-.66-.26-1.074a27.09 27.09 0 0 1-.208-1.313c-.06-.46-.107-.933-.14-1.422-.03-.49-.06-.954-.085-1.396-.018-.66-.038-1.397-.058-2.212a214.13 214.13 0 0 1-.046-2.495c-.012-.848-.036-1.692-.073-2.53-.038-.84-.09-1.63-.154-2.373a7.133 7.133 0 0 0-.14-.968c-.07-.34-.12-.612-.148-.818a1.904 1.904 0 0 0-.05-.38 2.712 2.712 0 0 1-.06-.318 9.73 9.73 0 0 1-.04-.31c-.018-.112 0-.27.052-.472.05-.203.166-.333.343-.39.177-.058.79.228.868.29.08.063.168.127.268.192.117.06.225.24.323.54.034.107.057.237.067.39a.82.82 0 0 0 .034.195c.023.07.047.25.07.534a46.156 46.156 0 0 1 .126 2.103c.012.368.023.658.033.87.004.194.018.523.04.985.024.462.05.953.082 1.47.03.52.052 1.006.064 1.463.01.456.02.78.023.976-.002.235.002.488.012.76.01.27.022.535.038.794.015.26.027.505.034.738a8.04 8.04 0 0 1-.002.587c-.013.26-.007.536.02.83.028.295.087.584.18.867.028.09.054.14.078.15.007-.217.034-.436.08-.657.046-.22.108-.48.187-.78.067-.276.156-.56.267-.85.112-.29.228-.612.348-.964a6.36 6.36 0 0 1 .875-1.695c.36-.49.762-.805 1.205-.95a2.31 2.31 0 0 1 1.193-.08c.39.08.75.238 1.08.473.33.235.622.527.872.876.25.35.44.72.566 1.108.26.797.323 1.57.194 2.315a6.936 6.936 0 0 1-.746 2.136 9.548 9.548 0 0 1-1.353 1.893 13.286 13.286 0 0 1-1.647 1.534c-.308.256-.546.46-.712.612-.166.152-.417.283-.754.392a.614.614 0 0 1-.305.01.585.585 0 0 1-.25-.093c-.19.082-.382.154-.577.217zm3.562-4.8c.5-.67.297-.44.73-1.21.432-.77.31-1.76.114-2.36-.206-.633-.422-.974-.648-1.023a1.363 1.363 0 0 0-.72.05c-.157.05-.324.21-.5.477s-1.05 2.422-1.27 2.983c-.22.562-.21.694-.365 1.182-.156.488-.26.81-.315.968-.043.19-.077.41-.1.663-.023.252.14.916.202 1.105.072.222.17.312.298.27.127-.04.342-.24.644-.602.302-.36.646-.812 1.03-1.357.233-.356.4-.476.9-1.146z" fill="#222"/></g></svg>